<svg xmlns="http://www.w3.org/2000/svg" xmlns:xlink="http://www.w3.org/1999/xlink" xmlns:lucid="lucid" width="1282.37" height="799.79"><g transform="translate(0 0)" lucid:page-tab-id="0_0"><path d="M1260 300c0 154.64-152.73 280-341.14 280-188.4 0-341.13-125.36-341.13-280S730.46 20 918.86 20 1260 145.36 1260 300z" stroke="#fc307b" stroke-width="3" fill-opacity="0"/><use xlink:href="#a" transform="matrix(1,0,0,1,582.5249164553085,24.8) translate(454.8666666666667 282.37013888888885)"/><use xlink:href="#b" transform="matrix(1,0,0,1,582.5249164553085,24.8) translate(595.7555555555555 282.37013888888885)"/><path d="M573.25 326.56c0 169.3-123.85 306.56-276.63 306.56C143.85 633.12 20 495.87 20 326.56 20 157.26 143.85 20 296.62 20c152.78 0 276.63 137.25 276.63 306.56z" stroke="#fc307b" stroke-width="3" fill-opacity="0"/><use xlink:href="#c" transform="matrix(1,0,0,1,24.8,24.8) translate(11.2 307.21388888888885)"/><use xlink:href="#d" transform="matrix(1,0,0,1,24.8,24.8) translate(47.37777777777775 307.21388888888885)"/><path d="M701.63 400c0 34.04-27.6 61.63-61.63 61.63-34.04 0-61.63-27.6-61.63-61.63 0-34.04 27.6-61.63 61.63-61.63 34.04 0 61.63 27.6 61.63 61.63z" stroke="#7f7f7f" stroke-width="4" fill="#ff825e"/><use xlink:href="#e" transform="matrix(1,0,0,1,583.3662765324084,343.3662765324084) translate(35.95444444444445 66.34305555555554)"/><path d="M266.9 131.95c0 33.16-26.9 60.04-60.04 60.04-33.16 0-60.04-26.9-60.04-60.05 0-33.16 26.88-60.04 60.04-60.04 33.15 0 60.03 26.9 60.03 60.05z" stroke="#7f7f7f" stroke-width="3" fill="#ffcebf"/><use xlink:href="#f" transform="matrix(1,0,0,1,151.81942960373874,76.91283188632889) translate(26.470000000000006 63.89375)"/><path d="M468.43 140c0 37.6-30.5 68.1-68.1 68.1-37.6 0-68.08-30.5-68.08-68.1 0-37.6 30.5-68.1 68.1-68.1 37.6 0 68.08 30.5 68.08 68.1z" stroke="#7f7f7f" stroke-width="3" fill="#ffcebf"/><use xlink:href="#g" transform="matrix(1,0,0,1,337.2521078138321,76.91283188632889) translate(32.08000000000001 70.39375)"/><path d="M160 420c0 33.14-26.86 60-60 60s-60-26.86-60-60 26.86-60 60-60 60 26.86 60 60z" stroke="#7f7f7f" stroke-width="3" fill="#ffcebf"/><use xlink:href="#h" transform="matrix(1,0,0,1,45,365) translate(27.230000000000008 63.4875)"/><path d="M420 325.03c0 44.18-35.82 80-80 80s-80-35.82-80-80c0-44.2 35.82-80 80-80s80 35.8 80 80z" stroke="#7f7f7f" stroke-width="3" fill="#ffcebf"/><use xlink:href="#i" transform="matrix(1,0,0,1,265,250.02722430974552) translate(42.580000000000005 79.7375)"/><path d="M780 195.37c0 44.18-35.82 80-80 80s-80-35.82-80-80c0-44.19 35.82-80 80-80s80 35.81 80 80z" stroke="#7f7f7f" stroke-width="3" fill="#dea6bb"/><use xlink:href="#j" transform="matrix(1,0,0,1,624.9999999999999,120.36796536796487) translate(48.790000000000006 70.3625)"/><use xlink:href="#k" transform="matrix(1,0,0,1,624.9999999999999,120.36796536796487) translate(33.28000000000001 93.84249999999999)"/><path d="M884.6 85.33c0 26.5-21.48 48-48 48-26.5 0-48-21.5-48-48s21.5-48 48-48c26.52 0 48 21.5 48 48z" stroke="#7f7f7f" stroke-width="3" fill="#dea6bb"/><use xlink:href="#l" transform="matrix(1,0,0,1,793.6090896685839,42.333333333342466) translate(22.295000000000005 37.6125)"/><use xlink:href="#k" transform="matrix(1,0,0,1,793.6090896685839,42.333333333342466) translate(1.2800000000000082 61.092499999999994)"/><path d="M375.32 471.55c0 29.94-24.27 54.2-54.2 54.2-29.95 0-54.23-24.26-54.23-54.2s24.27-54.22 54.2-54.22c29.95 0 54.22 24.28 54.22 54.22z" stroke="#7f7f7f" stroke-width="3" fill="#ffcebf"/><use xlink:href="#m" transform="matrix(1,0,0,1,271.8934016210358,422.3333333333515) translate(24.320000000000004 55.925)"/><path d="M983.5 677.62c0 35.2-28.54 63.75-63.75 63.75-35.2 0-63.75-28.54-63.75-63.75 0-35.2 28.54-63.75 63.75-63.75 35.2 0 63.75 28.54 63.75 63.75z" stroke="#7f7f7f" stroke-width="3" fill="#ffe2bf"/><use xlink:href="#n" transform="matrix(1,0,0,1,860.9999999999818,618.8732803171265) translate(20.470000000000006 66.7375)"/><path d="M993.12 483.9c0 36.75-29.8 66.55-66.56 66.55-36.76 0-66.56-29.8-66.56-66.56 0-36.77 29.8-66.57 66.56-66.57 36.76 0 66.56 29.8 66.56 66.56z" stroke="#7f7f7f" stroke-width="3" fill="#d8e4dd"/><use xlink:href="#o" transform="matrix(1,0,0,1,864.9999999999999,422.33333333335156) translate(33.175000000000004 45.925)"/><use xlink:href="#p" transform="matrix(1,0,0,1,864.9999999999999,422.33333333335156) translate(27.200000000000003 69.405)"/><use xlink:href="#q" transform="matrix(1,0,0,1,864.9999999999999,422.33333333335156) translate(32.675000000000004 92.88499999999999)"/><path d="M760 660c0 44.18-35.82 80-80 80s-80-35.82-80-80 35.82-80 80-80 80 35.82 80 80z" stroke="#7f7f7f" stroke-width="3" fill="#87b49c"/><use xlink:href="#r" transform="matrix(1,0,0,1,605,585) translate(31.970000000000006 79.7375)"/><path d="M1204.6 399.9c0 44.18-35.8 80-80 80-44.17 0-80-35.82-80-80 0-44.2 35.83-80 80-80 44.2 0 80 35.8 80 80z" stroke="#7f7f7f" stroke-width="3" fill="#ffbfd7"/><use xlink:href="#s" transform="matrix(1,0,0,1,1049.6090896685657,324.89177489178246) translate(49.27 70.3625)"/><use xlink:href="#t" transform="matrix(1,0,0,1,1049.6090896685657,324.89177489178246) translate(22.930000000000007 93.84249999999999)"/><use xlink:href="#u" transform="matrix(1,0,0,1,1049.6090896685657,324.89177489178246) translate(84.61000000000001 93.84249999999999)"/><path d="M573.25 599.03c0 21.56-17.48 39.04-39.04 39.04-21.54 0-39.02-17.48-39.02-39.04 0-21.55 17.48-39.03 39.03-39.03 21.57 0 39.05 17.48 39.05 39.03z" stroke="#7f7f7f" stroke-width="3" fill="#87b49c"/><use xlink:href="#v" transform="matrix(1,0,0,1,500.18027882152114,565) translate(13.805000000000005 29.581249999999997)"/><use xlink:href="#w" transform="matrix(1,0,0,1,500.18027882152114,565) translate(6.625000000000005 53.061249999999994)"/><path d="M1044.6 128.1c0 44.17-35.8 80-80 80-44.17 0-80-35.83-80-80 0-44.2 35.83-80 80-80 44.2 0 80 35.8 80 80z" stroke="#7f7f7f" stroke-width="3" fill="#d8e4dd"/><use xlink:href="#x" transform="matrix(1,0,0,1,889.6090896685657,53.08716811367111) translate(36.370000000000005 70.3625)"/><use xlink:href="#y" transform="matrix(1,0,0,1,889.6090896685657,53.08716811367111) translate(31.950000000000003 93.84249999999999)"/><path d="M1020 324.04c0 33.14-26.86 60-60 60s-60-26.86-60-60c0-33.13 26.86-60 60-60s60 26.87 60 60z" stroke="#7f7f7f" stroke-width="3" fill="#d8e4dd"/><use xlink:href="#z" transform="matrix(1,0,0,1,905,269.0435840568356) translate(26.140000000000008 49.7375)"/><use xlink:href="#A" transform="matrix(1,0,0,1,905,269.0435840568356) translate(31.260000000000005 73.2175)"/><path d="M1166.55 180c0 25.77-20.9 46.67-46.66 46.67-25.8 0-46.68-20.9-46.68-46.67 0-25.77 20.9-46.67 46.66-46.67 25.78 0 46.67 20.9 46.67 46.67z" stroke="#7f7f7f" stroke-width="3" fill="#ffcebf"/><use xlink:href="#B" transform="matrix(1,0,0,1,1078.2181793371496,138.33333333332416) translate(23.42 37.32)"/><use xlink:href="#C" transform="matrix(1,0,0,1,1078.2181793371496,138.33333333332416) translate(-6.769999999999989 60.8)"/><path d="M574.37 400.1L163.5 419.9" stroke="#7f7f7f" stroke-width="4" fill="none"/><path d="M576.37 399.97l.02 1.96v.05l-2 .1-.18-3.95 2.23-.1zM163.65 421.87l-2.23.1.08-1.97-.07-1.97 2.03-.1z" stroke="#7f7f7f" stroke-width=".05" fill="#7f7f7f"/><path d="M575.34 387.96l-155.3-38.8M577.28 380.2l-155.3-38.8" stroke="#7f7f7f" stroke-width="4" fill="none"/><path d="M577.84 386.55l-.64 3.1-.1.8-2.3-.58.97-3.83zM580 378.85l-.33.85-.85 2.92-2.07-.5.96-3.85zM420.57 347.25l-.95 3.83-2.2-.55.15-.42.97-3.36zM422.5 339.5l-.94 3.82-2.05-.5.57-2.5.22-1.4z" stroke="#7f7f7f" stroke-width=".05" fill="#7f7f7f"/><path d="M584.2 365.48l-18-11.06m-18-11.06l-36-22.1m-18-11.07l-36-22.12m-18-11.06l-36-22.1m-18-11.07l-36-22.1m-18-11.07l-36-22.1m-18-11.07l-18-11.05" stroke="#7f7f7f" stroke-width="4" fill="none"/><path d="M586.94 364.84l-.44.7-.18.28-.42.7-1.03 1.7-1.75-1.1 2.07-3.35zM261.27 164.8l-2.06 3.36-1.83-1.13.9-1.25 1.24-2.06z" stroke="#7f7f7f" stroke-width=".05" fill="#7f7f7f"/><path d="M592.6 354.47L445.9 195.32M598.48 349.05L451.78 189.9" stroke="#7f7f7f" stroke-width="4" fill="none"/><path d="M595.43 354.63l-2.76 2.84-1.56-1.7 2.9-2.67zM601.48 349.4l-1.4 1.03-1.67 1.47-1.4-1.55 2.9-2.68zM447.38 194.02l-2.9 2.68-1.57-1.7 1.68-1.28 1.4-1.23zM453.26 188.6l-2.9 2.68-1.4-1.53 2.75-2.83z" stroke="#7f7f7f" stroke-width=".05" fill="#7f7f7f"/><path d="M658.46 337.05l6-20.52M670.5 296l6-20.52" stroke="#7f7f7f" stroke-width="4" fill="none"/><path d="M660.37 337.56l-.58 1.96-3.8-1.1.58-1.97zM678.97 274.1l-.58 1.98-3.8-1.1.58-1.97z" stroke="#7f7f7f" stroke-width=".05" fill="#7f7f7f"/><path d="M690.3 357.88l14-11.75m14.03-11.74l28.04-23.5m14.02-11.75l28.03-23.5m14.02-11.73l28.05-23.5m14.02-11.74l28.04-23.5m14.02-11.73l14.02-11.75" stroke="#7f7f7f" stroke-width="4" fill="none"/><path d="M691.6 359.36l-1.6 1.33-.43-.6-2.12-2.43 1.6-1.34zM902.02 180.3l1.43 1.6-1.62 1.35-2.54-3.03 1.6-1.35z" stroke="#7f7f7f" stroke-width=".05" fill="#7f7f7f"/><path d="M702.9 380.96l194.4-46.14M704.75 388.74l194.4-46.14" stroke="#7f7f7f" stroke-width="4" fill="none"/><path d="M703.4 382.87l-2 .47-.1-.52-1.07-3.26 2.26-.54zM705.25 390.65l-2.27.54-.5-3.4-.14-.52 2-.47zM899.23 333.56l.54 2.7-2.07.5-.92-3.85 2.32-.54zM901.62 343.45l.2.54-2.28.54-.9-3.85 2.05-.5z" stroke="#7f7f7f" stroke-width=".05" fill="#7f7f7f"/><path d="M699.67 372.65l374.66-171.76" stroke="#7f7f7f" stroke-width="4" fill="none"/><path d="M700.54 374.42l-1.93.88-.86-2.1-.77-1.5 1.92-.87zM1075.36 198.4l1.64 3.43-1.9.87-1.64-3.6 1.85-.84z" stroke="#7f7f7f" stroke-width=".05" fill="#7f7f7f"/><path d="M705.63 400l18.64-.02m18.64 0h37.28m18.64-.02h37.28m18.63 0l37.28-.02m18.65 0h37.27m18.64 0l37.27-.02m18.64 0h18.64" stroke="#7f7f7f" stroke-width="4" fill="none"/><path d="M705.68 401.96h-2.12l.07-1.93-.02-1.96V398h2.08zM1043.1 399.87v.73l.06 1.28h-2.1v-3.94h2.1z" stroke="#7f7f7f" stroke-width=".05" fill="#7f7f7f"/><path d="M576 414.36l-198.62 44.56" stroke="#7f7f7f" stroke-width="4" fill="none"/><path d="M577.53 412.2l.87 3.65-2.03.45-.86-3.86 2-.44zM377.86 460.84l-2 .44v-.17l-.9-3.66 2.04-.46z" stroke="#7f7f7f" stroke-width=".05" fill="#7f7f7f"/><path d="M872.02 630.26l-15.46-15.34m-15.45-15.34l-30.9-30.68m-15.46-15.33l-30.9-30.68m-15.46-15.35l-30.92-30.67M702 461.54l-15.45-15.34" stroke="#7f7f7f" stroke-width="4" fill="none"/><path d="M874.88 630.3l-1.32 1.23-1.46 1.6-1.5-1.5 2.77-2.8zM687.98 444.83l-2.78 2.8-1.45-1.43.06-.05 2.7-2.78z" stroke="#7f7f7f" stroke-width=".05" fill="#7f7f7f"/><path d="M858.2 468.05l-156.37-45.78M860.46 460.37L704.08 414.6" stroke="#7f7f7f" stroke-width="4" fill="none"/><path d="M860.73 466.73l-.5 1.9-.38 1.96-2.24-.67 1.12-3.8zM863.16 459.1l-1.3 3.74-2-.6 1.1-3.78zM702.44 420.4l-1.1 3.78-2.25-.65 1.23-3.23.14-.5zM704.68 412.7l-1.1 3.8-1.98-.57.16-.55.7-3.32z" stroke="#7f7f7f" stroke-width=".05" fill="#7f7f7f"/><path d="M609.2 457.96L554.15 561.5" stroke="#7f7f7f" stroke-width="4" fill="none"/><path d="M610.27 456.28l1.64.78-1 1.88-3.48-1.86 1-1.88zM555.92 562.4l-.98 1.85-.88-.57-2.62-1.26 1-1.88z" stroke="#7f7f7f" stroke-width=".05" fill="#7f7f7f"/><path d="M468.43 551.14c0 29.95-24.28 54.22-54.22 54.22-29.93 0-54.2-24.27-54.2-54.22 0-29.94 24.27-54.2 54.2-54.2 29.95 0 54.23 24.26 54.23 54.2z" stroke="#7f7f7f" stroke-width="3" fill="#ffcebf"/><use xlink:href="#D" transform="matrix(1,0,0,1,365.00000000000006,501.93061030164455) translate(33.82000000000001 55.925)"/><path d="M459.9 515.74l123.34-82.56M464.36 522.4l123.33-82.57" stroke="#7f7f7f" stroke-width="4" fill="none"/><path d="M461.05 517.36l-1.73 1.15-.68-.98-1.77-2.12 1.98-1.33zM465.5 524l-1.95 1.3-1.94-3.45 1.7-1.13zM584.62 431.36l1.44 2.3-1.76 1.2-2.2-3.3 1.95-1.3zM590.43 439.9l.26.3-1.95 1.3-2.2-3.28 1.76-1.18z" stroke="#7f7f7f" stroke-width=".05" fill="#7f7f7f"/><path d="M995.78 586a6 6 0 0 1 6-6h245.66a6 6 0 0 1 6 6v180.3a6 6 0 0 1-6 6h-245.66a6 6 0 0 1-6-6z" stroke="#7f7f7f" fill-opacity="0"/><use xlink:href="#E" transform="matrix(1,0,0,1,1000.576092730503,584.8) translate(84.01111111111113 24.08888888888888)"/><path d="M1093.24 668.76a6 6 0 0 1 6-6h148.2a6 6 0 0 1 6 6v5.75a6 6 0 0 1-6 6h-148.2a6 6 0 0 1-6-6z" fill="none"/><use xlink:href="#F" transform="matrix(1,0,0,1,1093.2413925075725,662.7600008481836) translate(0 18.799999999999997)"/><path d="M1016.73 671.64h56.85M1016.76 671.64h-1.03M1073.55 671.64h1.03M1017.35 708.92h9.15m9.15 0h18.3m9.14 0h9.14M1017.38 708.92h-1.03M1072.22 708.92h1.02" stroke="#7f7f7f" stroke-width="2" fill="none"/><path d="M1093.24 706.04a6 6 0 0 1 6-6h93a6 6 0 0 1 6 6v5.76a6 6 0 0 1-6 6h-93a6 6 0 0 1-6-6z" fill="none"/><use xlink:href="#G" transform="matrix(1,0,0,1,1093.2413925075732,700.0437939635849) translate(0 18.799999999999997)"/><path d="M1093.24 743.33a6 6 0 0 1 6-6h93a6 6 0 0 1 6 6v5.75a6 6 0 0 1-6 6h-93a6 6 0 0 1-6-6z" fill="none"/><g><use xlink:href="#H" transform="matrix(1,0,0,1,1093.2413925075732,737.3275870789862) translate(0 18.799999999999997)"/></g><path d="M1017.35 632.35h56.23M1017.35 636.35h56.23M1017.38 632.35h-1.03M1017.38 636.35h-1.03M1073.55 632.35h1.03M1073.55 636.35h1.03" stroke="#7f7f7f" stroke-width="2" fill="none"/><path d="M1093.24 631.48a6 6 0 0 1 6-6h148.2a6 6 0 0 1 6 6v5.75a6 6 0 0 1-6 6h-148.2a6 6 0 0 1-6-6z" fill="none"/><g><use xlink:href="#I" transform="matrix(1,0,0,1,1093.241392507573,625.4762077327823) translate(0 18.799999999999997)"/></g><path d="M780 649.37C780 721.52 710.25 780 624.2 780c-86.03 0-155.77-58.48-155.77-130.63 0-72.14 69.74-130.63 155.78-130.63 86.05 0 155.8 58.5 155.8 130.63z" stroke="#fc307b" stroke-width="3" fill-opacity="0"/><g><use xlink:href="#J" transform="matrix(1,0,0,1,473.22644404117426,523.5445887445919) translate(11.2 118.58888888888887)"/><use xlink:href="#K" transform="matrix(1,0,0,1,473.22644404117426,523.5445887445919) translate(11.2 144.67777777777775)"/></g><defs><path fill="#fff" d="M516-24c-84 37-197 35-280-2C90-91-22-292 58-491c50-125 153-224 322-224s272 104 319 230c77 207-35 396-183 461zM378-592c-137 0-207 101-207 237 0 137 71 238 207 238s207-103 207-238c0-136-71-237-207-237" id="L"/><path fill="#fff" d="M184-412c38-63 88-124 189-118v122c-82 2-152 32-178 91V0H61v-524h123v112" id="M"/><path fill="#fff" d="M440-91C410-37 345 3 266 3 114 3 30-108 30-262c0-159 86-271 244-271 88 0 146 45 183 101v-92h117v499c-8 168-120 245-291 248-120 2-190-43-245-109l73-71c35 44 97 79 172 79 96 0 155-49 157-147v-66zM167-258c0 91 54 154 144 154 67 0 107-40 129-88v-125c-19-52-73-102-137-102-89 0-136 70-136 161" id="N"/><path fill="#fff" d="M25-156c-4-160 209-199 351-146 8-91-32-139-117-138-70 2-116 27-164 59l-41-85c67-45 140-67 218-67 145-1 239 73 238 216v163c0 27 8 38 32 40V0c-79 21-151-1-146-84-40 54-105 94-192 94C98 10 27-51 25-156zm127-11c-3 99 158 96 202 35 32-19 20-55 22-98-75-34-222-31-224 63" id="O"/><path fill="#fff" d="M390-533c121 0 157 87 158 206V0H414v-294c0-72-21-121-83-121-72 0-115 51-136 109V0H61v-524h121v97c35-63 112-106 208-106" id="P"/><path fill="#fff" d="M61 0v-524h134V0H61zm0-597v-133h134v133H61" id="Q"/><path fill="#fff" d="M460-212C532-31 307 54 130-11 88-26 52-45 22-71l50-84c54 37 106 67 184 69 47 1 85-16 86-58 0-19-9-32-27-41-91-50-275-37-275-176 0-201 301-213 411-101l-54 81c-45-33-87-51-152-58-62-6-114 66-57 98 87 48 237 41 272 129" id="R"/><path fill="#fff" d="M225-165c-5 70 87 52 123 32l27 106c-37 15-93 38-148 36C142 8 91-34 91-120v-301H22v-103h69v-170h134v170h110v103H225v256" id="S"/><path fill="#fff" d="M577-261C577-95 473 10 303 10S28-94 28-261s105-272 275-272 274 105 274 272zM303-419c-89 0-137 66-137 158s48 157 137 157c90 0 137-66 137-158 0-91-48-157-137-157" id="T"/><g id="a"><use transform="matrix(0.022222222222222213,0,0,0.022222222222222213,0,0)" xlink:href="#L"/><use transform="matrix(0.022222222222222213,0,0,0.022222222222222213,16.799999999999994,0)" xlink:href="#M"/><use transform="matrix(0.022222222222222213,0,0,0.022222222222222213,24.822222222222205,0)" xlink:href="#N"/><use transform="matrix(0.022222222222222213,0,0,0.022222222222222213,38.91111111111109,0)" xlink:href="#O"/><use transform="matrix(0.022222222222222213,0,0,0.022222222222222213,51.66666666666664,0)" xlink:href="#P"/><use transform="matrix(0.022222222222222213,0,0,0.022222222222222213,65.08888888888886,0)" xlink:href="#Q"/><use transform="matrix(0.022222222222222213,0,0,0.022222222222222213,70.75555555555553,0)" xlink:href="#R"/><use transform="matrix(0.022222222222222213,0,0,0.022222222222222213,81.79999999999997,0)" xlink:href="#O"/><use transform="matrix(0.022222222222222213,0,0,0.022222222222222213,94.46666666666663,0)" xlink:href="#S"/><use transform="matrix(0.022222222222222213,0,0,0.022222222222222213,102.99999999999996,0)" xlink:href="#Q"/><use transform="matrix(0.022222222222222213,0,0,0.022222222222222213,108.66666666666661,0)" xlink:href="#T"/><use transform="matrix(0.022222222222222213,0,0,0.022222222222222213,122.1333333333333,0)" xlink:href="#P"/></g><path fill="#fff" d="M548-127C511-49 421 14 304 10 135 5 28-93 28-259c0-170 106-274 277-274 182 0 285 122 270 314H170c10 78 56 128 139 131 54 2 110-31 124-71zM440-306c3-111-148-173-229-94-23 21-40 54-43 94h272" id="U"/><path fill="#fff" d="M718-533c120 0 156 88 157 206V0H741v-294c0-72-20-121-81-121-62 0-110 55-125 110V0H401v-294c0-72-20-121-81-121s-110 54-125 109V0H61v-524h121v97c35-63 102-105 195-106 84-1 133 46 148 111 38-64 98-111 193-111" id="V"/><g id="b"><use transform="matrix(0.022222222222222213,0,0,0.022222222222222213,0,0)" xlink:href="#S"/><use transform="matrix(0.022222222222222213,0,0,0.022222222222222213,8.24444444444444,0)" xlink:href="#U"/><use transform="matrix(0.022222222222222213,0,0,0.022222222222222213,21.555555555555543,0)" xlink:href="#O"/><use transform="matrix(0.022222222222222213,0,0,0.022222222222222213,34.31111111111109,0)" xlink:href="#V"/><use transform="matrix(0.022222222222222213,0,0,0.022222222222222213,54.99999999999998,0)" xlink:href="#R"/></g><path fill="#fff" d="M653 0v-470L470-120h-75L212-470V0H74v-710h148l210 404 212-404h147V0H653" id="W"/><path fill="#fff" d="M318 104c-24 88-132 152-246 114V102c34 10 86 19 104-12 15-25 26-54 37-90L6-524h138l142 408 126-408h126" id="X"/><g id="c"><use transform="matrix(0.022222222222222213,0,0,0.022222222222222213,0,0)" xlink:href="#W"/><use transform="matrix(0.022222222222222213,0,0,0.022222222222222213,19.222222222222214,0)" xlink:href="#X"/></g><g id="d"><use transform="matrix(0.022222222222222213,0,0,0.022222222222222213,0,0)" xlink:href="#S"/><use transform="matrix(0.022222222222222213,0,0,0.022222222222222213,8.24444444444444,0)" xlink:href="#U"/><use transform="matrix(0.022222222222222213,0,0,0.022222222222222213,21.555555555555543,0)" xlink:href="#O"/><use transform="matrix(0.022222222222222213,0,0,0.022222222222222213,34.31111111111109,0)" xlink:href="#V"/></g><g id="e"><use transform="matrix(0.028888888888888877,0,0,0.028888888888888877,0,0)" xlink:href="#W"/><use transform="matrix(0.028888888888888877,0,0,0.028888888888888877,24.786666666666658,0)" xlink:href="#U"/></g><path fill="#333" d="M89 0v-710h70v648h410V0H89" id="Y"/><path fill="#333" d="M556-259c0 160-98 269-259 269S39-99 39-259c0-125 67-206 155-249 61-29 145-29 206 0 89 43 156 123 156 249zM297-470c-119 0-189 90-189 212 0 121 70 208 189 208s190-88 190-210c0-121-71-210-190-210" id="Z"/><path fill="#333" d="M475-101C433-17 295 40 186-16 103-59 40-139 40-259c0-157 86-271 242-271 98 0 157 58 200 118v-109h61V2c-6 149-105 218-255 221-121 3-187-46-234-118l42-33c35 60 104 97 192 97 111 0 184-55 187-167v-103zM109-258c0 122 73 208 194 208 90 0 150-56 172-129v-161c-31-70-86-130-180-130-121 0-186 91-186 212" id="aa"/><path fill="#333" d="M33-152c0-163 233-183 372-130 12-119-39-199-147-197-69 1-119 29-167 62l-24-45c67-45 133-68 196-68 129-1 210 79 210 207v235c0 19 8 28 25 28V0c-44 11-80-5-82-46l-2-41c-42 57-115 97-208 97C103 10 33-50 33-152zm65-5C94-6 333-21 387-115c28-21 15-79 18-124-100-44-304-44-307 82" id="ab"/><path fill="#333" d="M358-530c125 0 154 99 155 225V0h-68v-291c-1-106-21-177-112-177-102 0-161 68-190 149V0H75v-521h62v118c37-69 120-127 221-127" id="ac"/><g id="f"><use transform="matrix(0.019999999999999997,0,0,0.019999999999999997,0,0)" xlink:href="#Y"/><use transform="matrix(0.019999999999999997,0,0,0.019999999999999997,11.239999999999998,0)" xlink:href="#Z"/><use transform="matrix(0.019999999999999997,0,0,0.019999999999999997,23.139999999999997,0)" xlink:href="#aa"/><use transform="matrix(0.019999999999999997,0,0,0.019999999999999997,35.49999999999999,0)" xlink:href="#ab"/><use transform="matrix(0.019999999999999997,0,0,0.019999999999999997,46.39999999999999,0)" xlink:href="#ac"/></g><path fill="#333" d="M599-487c0 115-61 190-158 213L615 0h-79L369-262H159V0H89v-710h300c129 10 210 95 210 223zm-70 0c0-92-54-161-144-161H159v324h232c90-6 138-72 138-163" id="ad"/><path fill="#333" d="M731-521h67L574 0h-56L406-266 295 0h-56L15-521h66L271-70l99-238-89-212h57l68 170 68-170h58l-89 212 99 238" id="ae"/><g id="g"><use transform="matrix(0.019999999999999997,0,0,0.019999999999999997,0,0)" xlink:href="#ad"/><use transform="matrix(0.019999999999999997,0,0,0.019999999999999997,12.759999999999998,0)" xlink:href="#Z"/><use transform="matrix(0.019999999999999997,0,0,0.019999999999999997,24.279999999999998,0)" xlink:href="#ae"/><use transform="matrix(0.019999999999999997,0,0,0.019999999999999997,40.27999999999999,0)" xlink:href="#ab"/><use transform="matrix(0.019999999999999997,0,0,0.019999999999999997,51.179999999999986,0)" xlink:href="#ac"/></g><path fill="#333" d="M89 0v-710h466v62H159v261h334v58H159V0H89" id="af"/><path fill="#333" d="M75 0v-521h68V0H75zm0-630v-100h68v100H75" id="ag"/><path fill="#333" d="M179 6C117 6 77-32 78-95v-635h68v612c-6 63 67 74 115 51l12 55c-21 9-65 18-94 18" id="ah"/><path fill="#333" d="M522-120C485-42 411 10 300 10 138 10 39-100 39-262c0-161 99-268 260-268 168 0 260 118 257 294H110c14 112 76 194 193 194 79 0 133-38 160-94zm-30-168c-9-131-125-225-264-175-69 25-111 88-119 175h383" id="ai"/><path fill="#333" d="M252 151c-17 51-73 85-147 69v-60c37 4 66 3 79-25 20-43 33-79 58-135L15-521h70L278-63l179-458h65" id="aj"/><g id="h"><use transform="matrix(0.019999999999999997,0,0,0.019999999999999997,0,0)" xlink:href="#af"/><use transform="matrix(0.019999999999999997,0,0,0.019999999999999997,11.779999999999998,0)" xlink:href="#ag"/><use transform="matrix(0.019999999999999997,0,0,0.019999999999999997,16.139999999999997,0)" xlink:href="#ac"/><use transform="matrix(0.019999999999999997,0,0,0.019999999999999997,27.799999999999997,0)" xlink:href="#ah"/><use transform="matrix(0.019999999999999997,0,0,0.019999999999999997,33.239999999999995,0)" xlink:href="#ai"/><use transform="matrix(0.019999999999999997,0,0,0.019999999999999997,44.699999999999996,0)" xlink:href="#aj"/></g><path fill="#333" d="M655-159C603-29 401 52 240-26 100-94-7-287 64-488c45-127 146-223 315-226 129-3 221 67 262 155l-55 34c-38-75-104-126-211-126-171 0-263 125-263 295 0 134 68 226 160 274 32 16 68 25 106 25 110 0 179-55 219-132" id="ak"/><path fill="#333" d="M348-530c126 0 165 97 165 225V0h-68v-291c0-103-29-177-120-177-98 0-155 69-182 149V0H75v-730h68v327c35-69 109-127 205-127" id="al"/><path fill="#333" d="M139-396c34-70 99-132 196-127v62c-97 3-167 59-192 137V0H75v-521h64v125" id="am"/><g id="i"><use transform="matrix(0.019999999999999997,0,0,0.019999999999999997,0,0)" xlink:href="#ak"/><use transform="matrix(0.019999999999999997,0,0,0.019999999999999997,13.719999999999997,0)" xlink:href="#al"/><use transform="matrix(0.019999999999999997,0,0,0.019999999999999997,25.379999999999995,0)" xlink:href="#ab"/><use transform="matrix(0.019999999999999997,0,0,0.019999999999999997,36.279999999999994,0)" xlink:href="#am"/><use transform="matrix(0.019999999999999997,0,0,0.019999999999999997,43.29999999999999,0)" xlink:href="#ah"/><use transform="matrix(0.019999999999999997,0,0,0.019999999999999997,48.73999999999998,0)" xlink:href="#ag"/><use transform="matrix(0.019999999999999997,0,0,0.019999999999999997,53.09999999999998,0)" xlink:href="#ai"/></g><path fill="#333" d="M401-349c2 203-27 360-233 360C108 11 57-4 14-33l20-56c31 20 80 37 134 37 158 0 162-140 163-297v-361h70v361" id="an"/><path fill="#333" d="M438-202C513-35 297 54 129-10 91-25 57-43 29-68l31-46c52 41 104 69 187 72 88 4 165-51 128-134-69-79-256-49-311-144-7-14-11-31-11-52-9-188 290-194 383-87l-33 40c-59-86-330-92-278 71 72 78 268 45 313 146" id="ao"/><g id="j"><use transform="matrix(0.019999999999999997,0,0,0.019999999999999997,0,0)" xlink:href="#an"/><use transform="matrix(0.019999999999999997,0,0,0.019999999999999997,9.459999999999999,0)" xlink:href="#ai"/><use transform="matrix(0.019999999999999997,0,0,0.019999999999999997,21.199999999999996,0)" xlink:href="#ao"/><use transform="matrix(0.019999999999999997,0,0,0.019999999999999997,30.939999999999994,0)" xlink:href="#ao"/><use transform="matrix(0.019999999999999997,0,0,0.019999999999999997,40.67999999999999,0)" xlink:href="#ai"/></g><path fill="#333" d="M184 37C102-90 13-247 55-446c24-113 77-204 129-293l52 25c-60 99-128 219-128 371 0 136 64 256 127 353" id="ap"/><path fill="#333" d="M301 10C138 10 39-100 39-262s98-263 261-268c103-3 178 53 212 124l-66 21c-26-48-79-85-149-85-120 0-189 85-189 208S178-50 298-50c74 0 129-36 152-89l67 20C482-42 410 10 301 10" id="aq"/><path fill="#333" d="M85-739c64 114 139 224 139 393 0 157-70 276-140 383L34 10C95-90 161-194 161-343c0-152-68-273-129-371" id="ar"/><g id="k"><use transform="matrix(0.019999999999999997,0,0,0.019999999999999997,0,0)" xlink:href="#ap"/><use transform="matrix(0.019999999999999997,0,0,0.019999999999999997,5.379999999999999,0)" xlink:href="#af"/><use transform="matrix(0.019999999999999997,0,0,0.019999999999999997,17.159999999999997,0)" xlink:href="#ag"/><use transform="matrix(0.019999999999999997,0,0,0.019999999999999997,21.519999999999996,0)" xlink:href="#ac"/><use transform="matrix(0.019999999999999997,0,0,0.019999999999999997,33.17999999999999,0)" xlink:href="#ab"/><use transform="matrix(0.019999999999999997,0,0,0.019999999999999997,44.07999999999999,0)" xlink:href="#ac"/><use transform="matrix(0.019999999999999997,0,0,0.019999999999999997,55.739999999999995,0)" xlink:href="#aq"/><use transform="matrix(0.019999999999999997,0,0,0.019999999999999997,66.61999999999999,0)" xlink:href="#ai"/><use transform="matrix(0.019999999999999997,0,0,0.019999999999999997,78.07999999999998,0)" xlink:href="#ar"/></g><path fill="#333" d="M58-511c0-144 107-204 253-204 101 0 170 34 227 82l-34 56c-39-44-109-76-194-76-110 0-180 37-180 132 0 108 106 112 197 136 122 32 246 53 246 199C573-44 462 6 317 6 207 6 112-28 32-97l35-57c57 57 139 93 252 98 122 6 215-66 167-178-84-117-345-66-414-204-10-20-14-44-14-73" id="as"/><path fill="#333" d="M691-530c126 1 159 98 159 225V0h-68v-291c0-104-25-177-115-177-98 0-145 71-171 150V0h-68v-291c-1-107-22-177-114-177-90 0-149 72-171 149V0H75v-521h62v118c37-70 102-125 199-127 89-1 143 57 154 134 49-89 116-134 201-134" id="at"/><g id="l"><use transform="matrix(0.019999999999999997,0,0,0.019999999999999997,0,0)" xlink:href="#as"/><use transform="matrix(0.019999999999999997,0,0,0.019999999999999997,12.139999999999999,0)" xlink:href="#ab"/><use transform="matrix(0.019999999999999997,0,0,0.019999999999999997,23.040000000000003,0)" xlink:href="#at"/></g><g id="m"><use transform="matrix(0.019999999999999997,0,0,0.019999999999999997,0,0)" xlink:href="#ad"/><use transform="matrix(0.019999999999999997,0,0,0.019999999999999997,12.759999999999998,0)" xlink:href="#ai"/><use transform="matrix(0.019999999999999997,0,0,0.019999999999999997,24.499999999999996,0)" xlink:href="#ag"/><use transform="matrix(0.019999999999999997,0,0,0.019999999999999997,28.859999999999996,0)" xlink:href="#ah"/><use transform="matrix(0.019999999999999997,0,0,0.019999999999999997,34.3,0)" xlink:href="#ah"/><use transform="matrix(0.019999999999999997,0,0,0.019999999999999997,39.519999999999996,0)" xlink:href="#aj"/></g><path fill="#333" d="M309-710h59L663 0h-74l-92-222H178L87 0H12zm172 433L338-628 193-277h288" id="au"/><path fill="#333" d="M455-118C417-47 338 8 238 10 7 15 84-305 70-521h68v294c0 118 40 177 121 177 102 0 156-66 188-143v-328h68v433c0 19 8 28 24 28V0c-48 11-85-12-84-58v-60" id="av"/><path fill="#333" d="M483-101C439-16 301 45 189-12 104-55 40-136 40-259c0-155 85-264 238-271 93-4 162 59 197 118v-318h68v642c0 19 8 28 24 28V0c-42 13-84-13-84-50v-51zM110-259c0 122 73 209 194 209 86 0 152-53 171-129v-161c-31-69-87-130-180-130-119 0-185 91-185 211" id="aw"/><path fill="#333" d="M165-113c-1 73 106 62 142 33l18 55C293-10 255 6 207 6 141 6 97-28 97-94v-373H25v-54h72v-176h68v176h120v54H165v354" id="ax"/><g id="n"><use transform="matrix(0.019999999999999997,0,0,0.019999999999999997,0,0)" xlink:href="#au"/><use transform="matrix(0.019999999999999997,0,0,0.019999999999999997,13.279999999999998,0)" xlink:href="#av"/><use transform="matrix(0.019999999999999997,0,0,0.019999999999999997,25.159999999999997,0)" xlink:href="#aw"/><use transform="matrix(0.019999999999999997,0,0,0.019999999999999997,37.599999999999994,0)" xlink:href="#ag"/><use transform="matrix(0.019999999999999997,0,0,0.019999999999999997,41.959999999999994,0)" xlink:href="#ax"/><use transform="matrix(0.019999999999999997,0,0,0.019999999999999997,48.39999999999999,0)" xlink:href="#Z"/><use transform="matrix(0.019999999999999997,0,0,0.019999999999999997,60.29999999999999,0)" xlink:href="#am"/><use transform="matrix(0.019999999999999997,0,0,0.019999999999999997,67.32,0)" xlink:href="#ao"/></g><g id="o"><use transform="matrix(0.019999999999999997,0,0,0.019999999999999997,0,0)" xlink:href="#ak"/><use transform="matrix(0.019999999999999997,0,0,0.019999999999999997,13.719999999999997,0)" xlink:href="#ab"/><use transform="matrix(0.019999999999999997,0,0,0.019999999999999997,24.619999999999997,0)" xlink:href="#ao"/><use transform="matrix(0.019999999999999997,0,0,0.019999999999999997,34.36,0)" xlink:href="#ai"/><use transform="matrix(0.019999999999999997,0,0,0.019999999999999997,45.81999999999999,0)" xlink:href="#aj"/></g><path fill="#333" d="M577-260c0 156-83 264-236 270-95 4-160-57-198-118v321H75v-734h61v101c45-83 181-146 293-88 84 43 148 126 148 248zm-434 79c33 69 84 131 179 131 119 0 186-90 186-210 0-122-73-210-194-210-87 0-151 54-171 129v160" id="ay"/><g id="p"><use transform="matrix(0.019999999999999997,0,0,0.019999999999999997,0,0)" xlink:href="#ap"/><use transform="matrix(0.019999999999999997,0,0,0.019999999999999997,5.379999999999999,0)" xlink:href="#as"/><use transform="matrix(0.019999999999999997,0,0,0.019999999999999997,17.519999999999996,0)" xlink:href="#av"/><use transform="matrix(0.019999999999999997,0,0,0.019999999999999997,29.399999999999995,0)" xlink:href="#ay"/><use transform="matrix(0.019999999999999997,0,0,0.019999999999999997,41.739999999999995,0)" xlink:href="#ay"/><use transform="matrix(0.019999999999999997,0,0,0.019999999999999997,54.07999999999999,0)" xlink:href="#ah"/><use transform="matrix(0.019999999999999997,0,0,0.019999999999999997,59.29999999999999,0)" xlink:href="#aj"/></g><g id="q"><use transform="matrix(0.019999999999999997,0,0,0.019999999999999997,0,0)" xlink:href="#ak"/><use transform="matrix(0.019999999999999997,0,0,0.019999999999999997,13.719999999999997,0)" xlink:href="#al"/><use transform="matrix(0.019999999999999997,0,0,0.019999999999999997,25.379999999999995,0)" xlink:href="#ab"/><use transform="matrix(0.019999999999999997,0,0,0.019999999999999997,36.279999999999994,0)" xlink:href="#ag"/><use transform="matrix(0.019999999999999997,0,0,0.019999999999999997,40.63999999999999,0)" xlink:href="#ac"/><use transform="matrix(0.019999999999999997,0,0,0.019999999999999997,52.29999999999999,0)" xlink:href="#ar"/></g><path fill="#333" d="M718 0v-583L459-132h-41L159-583V0H89v-710h72l277 486 279-486h71V0h-70" id="az"/><path fill="#333" d="M266-681c-78 2-101 71-98 160h144v54H168V0h-68v-467H28v-54h72c-9-144 71-251 213-210 19 6 36 14 50 24l-21 49c-17-14-47-23-76-23" id="aA"/><g id="r"><use transform="matrix(0.019999999999999997,0,0,0.019999999999999997,0,0)" xlink:href="#az"/><use transform="matrix(0.019999999999999997,0,0,0.019999999999999997,17.539999999999996,0)" xlink:href="#ag"/><use transform="matrix(0.019999999999999997,0,0,0.019999999999999997,21.899999999999995,0)" xlink:href="#aq"/><use transform="matrix(0.019999999999999997,0,0,0.019999999999999997,32.879999999999995,0)" xlink:href="#am"/><use transform="matrix(0.019999999999999997,0,0,0.019999999999999997,39.37999999999999,0)" xlink:href="#Z"/><use transform="matrix(0.019999999999999997,0,0,0.019999999999999997,51.27999999999998,0)" xlink:href="#ao"/><use transform="matrix(0.019999999999999997,0,0,0.019999999999999997,61.01999999999998,0)" xlink:href="#Z"/><use transform="matrix(0.019999999999999997,0,0,0.019999999999999997,72.75999999999999,0)" xlink:href="#aA"/><use transform="matrix(0.019999999999999997,0,0,0.019999999999999997,79.35999999999999,0)" xlink:href="#ax"/></g><path fill="#333" d="M491-364c75 20 132 89 132 181C623-67 541 0 424 0H89v-710h342c103 7 162 78 162 181 0 78-44 140-102 165zM424-61c78-6 129-55 129-134 0-78-46-135-122-135H159v269h265zm100-457c0-76-41-131-115-131H159v262h244c75-6 121-55 121-131" id="aB"/><path fill="#333" d="M447 0L255-267 143-163V0H75v-730h68v496l293-286h77L300-307 521 0h-74" id="aC"/><g id="s"><use transform="matrix(0.019999999999999997,0,0,0.019999999999999997,0,0)" xlink:href="#aB"/><use transform="matrix(0.019999999999999997,0,0,0.019999999999999997,13.319999999999999,0)" xlink:href="#ah"/><use transform="matrix(0.019999999999999997,0,0,0.019999999999999997,18.759999999999998,0)" xlink:href="#ab"/><use transform="matrix(0.019999999999999997,0,0,0.019999999999999997,29.659999999999997,0)" xlink:href="#aC"/><use transform="matrix(0.019999999999999997,0,0,0.019999999999999997,39.72,0)" xlink:href="#ai"/></g><g id="t"><use transform="matrix(0.019999999999999997,0,0,0.019999999999999997,0,0)" xlink:href="#ap"/><use transform="matrix(0.019999999999999997,0,0,0.019999999999999997,5.379999999999999,0)" xlink:href="#ad"/><use transform="matrix(0.019999999999999997,0,0,0.019999999999999997,18.139999999999997,0)" xlink:href="#ai"/><use transform="matrix(0.019999999999999997,0,0,0.019999999999999997,29.799999999999997,0)" xlink:href="#ax"/><use transform="matrix(0.019999999999999997,0,0,0.019999999999999997,36.5,0)" xlink:href="#ab"/><use transform="matrix(0.019999999999999997,0,0,0.019999999999999997,47.4,0)" xlink:href="#ag"/><use transform="matrix(0.019999999999999997,0,0,0.019999999999999997,51.76,0)" xlink:href="#ah"/></g><path fill="#333" d="M507-24c-81 37-187 35-267-2C97-92-9-294 68-491c48-122 145-224 308-224 165 0 263 105 308 229 74 205-33 396-177 462zM266-626C152-569 74-409 131-244 166-143 242-58 375-58c169 0 263-129 263-297 0-133-67-224-157-271-63-33-152-31-215 0" id="aD"/><g id="u"><use transform="matrix(0.019999999999999997,0,0,0.019999999999999997,0,0)" xlink:href="#aD"/><use transform="matrix(0.019999999999999997,0,0,0.019999999999999997,15.019999999999998,0)" xlink:href="#ay"/><use transform="matrix(0.019999999999999997,0,0,0.019999999999999997,27.359999999999996,0)" xlink:href="#ao"/><use transform="matrix(0.019999999999999997,0,0,0.019999999999999997,37.099999999999994,0)" xlink:href="#ar"/></g><path fill="#333" d="M88-521l156 204 8 15 8-15 156-204h73L290-259 489 0h-73c-54-73-112-142-164-217C200-142 142-73 88 0H15l199-259L15-521h73" id="aE"/><g id="v"><use transform="matrix(0.019999999999999997,0,0,0.019999999999999997,0,0)" xlink:href="#au"/><use transform="matrix(0.019999999999999997,0,0,0.019999999999999997,13.519999999999998,0)" xlink:href="#ah"/><use transform="matrix(0.019999999999999997,0,0,0.019999999999999997,18.959999999999997,0)" xlink:href="#ai"/><use transform="matrix(0.019999999999999997,0,0,0.019999999999999997,30.319999999999997,0)" xlink:href="#aE"/></g><path fill="#333" d="M356-705h66l100 252 101-252h67L566-402 702-81l257-629h76L734 0h-62L523-351 373 0h-61L12-710h75L345-81l135-321" id="aF"/><g id="w"><use transform="matrix(0.019999999999999997,0,0,0.019999999999999997,0,0)" xlink:href="#ap"/><use transform="matrix(0.019999999999999997,0,0,0.019999999999999997,5.379999999999999,0)" xlink:href="#au"/><use transform="matrix(0.019999999999999997,0,0,0.019999999999999997,17.679999999999996,0)" xlink:href="#aF"/><use transform="matrix(0.019999999999999997,0,0,0.019999999999999997,38.25999999999999,0)" xlink:href="#as"/><use transform="matrix(0.019999999999999997,0,0,0.019999999999999997,50.39999999999999,0)" xlink:href="#ar"/></g><path fill="#333" d="M649-710V0h-69v-332H159V0H89v-710h70v316h421v-316h69" id="aG"/><g id="x"><use transform="matrix(0.019999999999999997,0,0,0.019999999999999997,0,0)" xlink:href="#aG"/><use transform="matrix(0.019999999999999997,0,0,0.019999999999999997,14.659999999999998,0)" xlink:href="#ab"/><use transform="matrix(0.019999999999999997,0,0,0.019999999999999997,25.559999999999995,0)" xlink:href="#am"/><use transform="matrix(0.019999999999999997,0,0,0.019999999999999997,32.57999999999999,0)" xlink:href="#am"/><use transform="matrix(0.019999999999999997,0,0,0.019999999999999997,39.59999999999999,0)" xlink:href="#ag"/><use transform="matrix(0.019999999999999997,0,0,0.019999999999999997,43.95999999999999,0)" xlink:href="#ao"/><use transform="matrix(0.019999999999999997,0,0,0.019999999999999997,53.69999999999999,0)" xlink:href="#Z"/><use transform="matrix(0.019999999999999997,0,0,0.019999999999999997,65.6,0)" xlink:href="#ac"/></g><g id="y"><use transform="matrix(0.019999999999999997,0,0,0.019999999999999997,0,0)" xlink:href="#ap"/><use transform="matrix(0.019999999999999997,0,0,0.019999999999999997,5.379999999999999,0)" xlink:href="#as"/><use transform="matrix(0.019999999999999997,0,0,0.019999999999999997,17.519999999999996,0)" xlink:href="#ai"/><use transform="matrix(0.019999999999999997,0,0,0.019999999999999997,29.259999999999994,0)" xlink:href="#aq"/><use transform="matrix(0.019999999999999997,0,0,0.019999999999999997,40.239999999999995,0)" xlink:href="#av"/><use transform="matrix(0.019999999999999997,0,0,0.019999999999999997,52.11999999999999,0)" xlink:href="#am"/><use transform="matrix(0.019999999999999997,0,0,0.019999999999999997,59.13999999999998,0)" xlink:href="#ag"/><use transform="matrix(0.019999999999999997,0,0,0.019999999999999997,63.49999999999999,0)" xlink:href="#ax"/><use transform="matrix(0.019999999999999997,0,0,0.019999999999999997,70.19999999999999,0)" xlink:href="#aj"/><use transform="matrix(0.019999999999999997,0,0,0.019999999999999997,80.74,0)" xlink:href="#ar"/></g><g id="z"><use transform="matrix(0.019999999999999997,0,0,0.019999999999999997,0,0)" xlink:href="#ad"/><use transform="matrix(0.019999999999999997,0,0,0.019999999999999997,12.759999999999998,0)" xlink:href="#ai"/><use transform="matrix(0.019999999999999997,0,0,0.019999999999999997,24.499999999999996,0)" xlink:href="#ai"/><use transform="matrix(0.019999999999999997,0,0,0.019999999999999997,36.239999999999995,0)" xlink:href="#ao"/><use transform="matrix(0.019999999999999997,0,0,0.019999999999999997,45.97999999999999,0)" xlink:href="#ai"/></g><g id="A"><use transform="matrix(0.019999999999999997,0,0,0.019999999999999997,0,0)" xlink:href="#ap"/><use transform="matrix(0.019999999999999997,0,0,0.019999999999999997,5.019999999999999,0)" xlink:href="#aD"/><use transform="matrix(0.019999999999999997,0,0,0.019999999999999997,20.039999999999996,0)" xlink:href="#ay"/><use transform="matrix(0.019999999999999997,0,0,0.019999999999999997,32.379999999999995,0)" xlink:href="#ao"/><use transform="matrix(0.019999999999999997,0,0,0.019999999999999997,42.11999999999999,0)" xlink:href="#ar"/></g><path fill="#333" d="M566-62V0H89v-710h468v62H159v256h347v59H159v271h407" id="aH"/><g id="B"><use transform="matrix(0.019999999999999997,0,0,0.019999999999999997,0,0)" xlink:href="#aH"/><use transform="matrix(0.019999999999999997,0,0,0.019999999999999997,12.179999999999998,0)" xlink:href="#ah"/><use transform="matrix(0.019999999999999997,0,0,0.019999999999999997,17.619999999999997,0)" xlink:href="#ah"/><use transform="matrix(0.019999999999999997,0,0,0.019999999999999997,23.059999999999995,0)" xlink:href="#ag"/><use transform="matrix(0.019999999999999997,0,0,0.019999999999999997,27.419999999999995,0)" xlink:href="#ao"/></g><g id="C"><use transform="matrix(0.019999999999999997,0,0,0.019999999999999997,0,0)" xlink:href="#ap"/><use transform="matrix(0.019999999999999997,0,0,0.019999999999999997,5.379999999999999,0)" xlink:href="#az"/><use transform="matrix(0.019999999999999997,0,0,0.019999999999999997,22.819999999999993,0)" xlink:href="#ab"/><use transform="matrix(0.019999999999999997,0,0,0.019999999999999997,33.71999999999999,0)" xlink:href="#am"/><use transform="matrix(0.019999999999999997,0,0,0.019999999999999997,40.73999999999999,0)" xlink:href="#aC"/><use transform="matrix(0.019999999999999997,0,0,0.019999999999999997,50.79999999999998,0)" xlink:href="#ai"/><use transform="matrix(0.019999999999999997,0,0,0.019999999999999997,62.45999999999998,0)" xlink:href="#ax"/><use transform="matrix(0.019999999999999997,0,0,0.019999999999999997,69.15999999999998,0)" xlink:href="#ag"/><use transform="matrix(0.019999999999999997,0,0,0.019999999999999997,73.51999999999998,0)" xlink:href="#ac"/><use transform="matrix(0.019999999999999997,0,0,0.019999999999999997,85.17999999999999,0)" xlink:href="#aa"/></g><g id="D"><use transform="matrix(0.019999999999999997,0,0,0.019999999999999997,0,0)" xlink:href="#an"/><use transform="matrix(0.019999999999999997,0,0,0.019999999999999997,9.479999999999999,0)" xlink:href="#ab"/><use transform="matrix(0.019999999999999997,0,0,0.019999999999999997,20.379999999999995,0)" xlink:href="#aq"/></g><path fill="#fff" d="M74 0v-710h138v589h362V0H74" id="aI"/><path fill="#fff" d="M460-91C428-32 361 10 278 10 119 10 29-102 29-262c0-156 81-264 234-271 82-4 146 46 177 101v-298h134v576c0 27 7 38 31 40V0c-81 22-152-5-145-91zM168-259c0 92 53 155 145 155 65 0 106-40 127-88v-125c-23-54-65-102-135-102-89 0-137 70-137 160" id="aJ"/><g id="E"><use transform="matrix(0.02222222222222222,0,0,0.02222222222222222,0,0)" xlink:href="#aI"/><use transform="matrix(0.02222222222222222,0,0,0.02222222222222222,12.51111111111111,0)" xlink:href="#U"/><use transform="matrix(0.02222222222222222,0,0,0.02222222222222222,25.82222222222222,0)" xlink:href="#N"/><use transform="matrix(0.02222222222222222,0,0,0.02222222222222222,39.911111111111104,0)" xlink:href="#U"/><use transform="matrix(0.02222222222222222,0,0,0.02222222222222222,53.222222222222214,0)" xlink:href="#P"/><use transform="matrix(0.02222222222222222,0,0,0.02222222222222222,66.64444444444443,0)" xlink:href="#aJ"/></g><path fill="#fff" d="M566-62V0H89v-710h468v62H159v256h347v59H159v271h407" id="aK"/><path fill="#fff" d="M438-202C513-35 297 54 129-10 91-25 57-43 29-68l31-46c52 41 104 69 187 72 88 4 165-51 128-134-69-79-256-49-311-144-7-14-11-31-11-52-9-188 290-194 383-87l-33 40c-59-86-330-92-278 71 72 78 268 45 313 146" id="aL"/><path fill="#fff" d="M165-113c-1 73 106 62 142 33l18 55C293-10 255 6 207 6 141 6 97-28 97-94v-373H25v-54h72v-176h68v176h120v54H165v354" id="aM"/><path fill="#fff" d="M33-152c0-163 233-183 372-130 12-119-39-199-147-197-69 1-119 29-167 62l-24-45c67-45 133-68 196-68 129-1 210 79 210 207v235c0 19 8 28 25 28V0c-44 11-80-5-82-46l-2-41c-42 57-115 97-208 97C103 10 33-50 33-152zm65-5C94-6 333-21 387-115c28-21 15-79 18-124-100-44-304-44-307 82" id="aN"/><path fill="#fff" d="M577-259c0 157-92 262-247 269-89 4-160-52-194-111V0H75v-730h68v318c42-62 101-118 198-118 154 0 236 118 236 271zm-434 81c19 76 84 128 171 128 122 0 194-89 194-209s-67-211-186-211c-95 0-145 64-179 130v162" id="aO"/><path fill="#fff" d="M179 6C117 6 77-32 78-95v-635h68v612c-6 63 67 74 115 51l12 55c-21 9-65 18-94 18" id="aP"/><path fill="#fff" d="M75 0v-521h68V0H75zm0-630v-100h68v100H75" id="aQ"/><path fill="#fff" d="M348-530c126 0 165 97 165 225V0h-68v-291c0-103-29-177-120-177-98 0-155 69-182 149V0H75v-730h68v327c35-69 109-127 205-127" id="aR"/><path fill="#fff" d="M522-120C485-42 411 10 300 10 138 10 39-100 39-262c0-161 99-268 260-268 168 0 260 118 257 294H110c14 112 76 194 193 194 79 0 133-38 160-94zm-30-168c-9-131-125-225-264-175-69 25-111 88-119 175h383" id="aS"/><path fill="#fff" d="M483-101C439-16 301 45 189-12 104-55 40-136 40-259c0-155 85-264 238-271 93-4 162 59 197 118v-318h68v642c0 19 8 28 24 28V0c-42 13-84-13-84-50v-51zM110-259c0 122 73 209 194 209 86 0 152-53 171-129v-161c-31-69-87-130-180-130-119 0-185 91-185 211" id="aT"/><g id="F"><use transform="matrix(0.019999999999999997,0,0,0.019999999999999997,0,0)" xlink:href="#aK"/><use transform="matrix(0.019999999999999997,0,0,0.019999999999999997,12.059999999999999,0)" xlink:href="#aL"/><use transform="matrix(0.019999999999999997,0,0,0.019999999999999997,21.799999999999997,0)" xlink:href="#aM"/><use transform="matrix(0.019999999999999997,0,0,0.019999999999999997,28.499999999999996,0)" xlink:href="#aN"/><use transform="matrix(0.019999999999999997,0,0,0.019999999999999997,39.39999999999999,0)" xlink:href="#aO"/><use transform="matrix(0.019999999999999997,0,0,0.019999999999999997,51.739999999999995,0)" xlink:href="#aP"/><use transform="matrix(0.019999999999999997,0,0,0.019999999999999997,57.179999999999986,0)" xlink:href="#aQ"/><use transform="matrix(0.019999999999999997,0,0,0.019999999999999997,61.539999999999985,0)" xlink:href="#aL"/><use transform="matrix(0.019999999999999997,0,0,0.019999999999999997,71.27999999999999,0)" xlink:href="#aR"/><use transform="matrix(0.019999999999999997,0,0,0.019999999999999997,82.93999999999998,0)" xlink:href="#aS"/><use transform="matrix(0.019999999999999997,0,0,0.019999999999999997,94.67999999999999,0)" xlink:href="#aT"/></g><path fill="#fff" d="M356-705h66l100 252 101-252h67L566-402 702-81l257-629h76L734 0h-62L523-351 373 0h-61L12-710h75L345-81l135-321" id="aU"/><path fill="#fff" d="M447 0L255-267 143-163V0H75v-730h68v496l293-286h77L300-307 521 0h-74" id="aV"/><g id="G"><use transform="matrix(0.019999999999999997,0,0,0.019999999999999997,0,0)" xlink:href="#aU"/><use transform="matrix(0.019999999999999997,0,0,0.019999999999999997,19.639999999999997,0)" xlink:href="#aS"/><use transform="matrix(0.019999999999999997,0,0,0.019999999999999997,31.379999999999995,0)" xlink:href="#aN"/><use transform="matrix(0.019999999999999997,0,0,0.019999999999999997,42.279999999999994,0)" xlink:href="#aV"/></g><path fill="#fff" d="M159-580V0H89v-710h54l470 591v-590h70V0h-61" id="aW"/><path fill="#fff" d="M556-259c0 160-98 269-259 269S39-99 39-259c0-125 67-206 155-249 61-29 145-29 206 0 89 43 156 123 156 249zM297-470c-119 0-189 90-189 212 0 121 70 208 189 208s190-88 190-210c0-121-71-210-190-210" id="aX"/><path fill="#fff" d="M358-530c125 0 154 99 155 225V0h-68v-291c-1-106-21-177-112-177-102 0-161 68-190 149V0H75v-521h62v118c37-69 120-127 221-127" id="aY"/><g id="H"><use transform="matrix(0.019999999999999997,0,0,0.019999999999999997,0,0)" xlink:href="#aW"/><use transform="matrix(0.019999999999999997,0,0,0.019999999999999997,15.299999999999997,0)" xlink:href="#aX"/><use transform="matrix(0.019999999999999997,0,0,0.019999999999999997,27.199999999999996,0)" xlink:href="#aY"/><use transform="matrix(0.019999999999999997,0,0,0.019999999999999997,38.85999999999999,0)" xlink:href="#aS"/></g><path fill="#fff" d="M58-511c0-144 107-204 253-204 101 0 170 34 227 82l-34 56c-39-44-109-76-194-76-110 0-180 37-180 132 0 108 106 112 197 136 122 32 246 53 246 199C573-44 462 6 317 6 207 6 112-28 32-97l35-57c57 57 139 93 252 98 122 6 215-66 167-178-84-117-345-66-414-204-10-20-14-44-14-73" id="aZ"/><path fill="#fff" d="M139-396c34-70 99-132 196-127v62c-97 3-167 59-192 137V0H75v-521h64v125" id="ba"/><path fill="#fff" d="M475-101C433-17 295 40 186-16 103-59 40-139 40-259c0-157 86-271 242-271 98 0 157 58 200 118v-109h61V2c-6 149-105 218-255 221-121 3-187-46-234-118l42-33c35 60 104 97 192 97 111 0 184-55 187-167v-103zM109-258c0 122 73 208 194 208 90 0 150-56 172-129v-161c-31-70-86-130-180-130-121 0-186 91-186 212" id="bb"/><g id="I"><use transform="matrix(0.019999999999999997,0,0,0.019999999999999997,0,0)" xlink:href="#aZ"/><use transform="matrix(0.019999999999999997,0,0,0.019999999999999997,12.02,0)" xlink:href="#aM"/><use transform="matrix(0.019999999999999997,0,0,0.019999999999999997,18.72,0)" xlink:href="#ba"/><use transform="matrix(0.019999999999999997,0,0,0.019999999999999997,25.220000000000002,0)" xlink:href="#aX"/><use transform="matrix(0.019999999999999997,0,0,0.019999999999999997,37.12,0)" xlink:href="#aY"/><use transform="matrix(0.019999999999999997,0,0,0.019999999999999997,48.779999999999994,0)" xlink:href="#bb"/></g><path fill="#fff" d="M147-710l192 537 190-537h145L397 0H281L2-710h145" id="bc"/><g id="K"><use transform="matrix(0.022222222222222213,0,0,0.022222222222222213,0,0)" xlink:href="#bc"/><use transform="matrix(0.022222222222222213,0,0,0.022222222222222213,13.599999999999994,0)" xlink:href="#U"/><use transform="matrix(0.022222222222222213,0,0,0.022222222222222213,26.9111111111111,0)" xlink:href="#P"/><use transform="matrix(0.022222222222222213,0,0,0.022222222222222213,40.333333333333314,0)" xlink:href="#aJ"/><use transform="matrix(0.022222222222222213,0,0,0.022222222222222213,54.66666666666664,0)" xlink:href="#T"/><use transform="matrix(0.022222222222222213,0,0,0.022222222222222213,68.1333333333333,0)" xlink:href="#M"/><use transform="matrix(0.022222222222222213,0,0,0.022222222222222213,76.73333333333329,0)" xlink:href="#R"/></g></defs></g></svg>