<svg xmlns="http://www.w3.org/2000/svg" xmlns:xlink="http://www.w3.org/1999/xlink" xmlns:lucid="lucid" width="1244" height="604"><g transform="translate(-18 -98.49997516778518)" lucid:page-tab-id="aYqLx5vvJCfT"><path d="M40 124.5a4 4 0 0 1 4-4h1192a4 4 0 0 1 4 4v552a4 4 0 0 1-4 4H44a4 4 0 0 1-4-4z" stroke="#7f7f7f" stroke-width="4" fill-opacity="0"/><path d="M640 157.65V120.5" stroke="#7f7f7f" stroke-width="4" fill="none"/><path d="M641.98 160l-.12-.06-.92-.22-.94-.07-.94.07-.92.22-.12.05v-2.4H642zM641.98 120.55H638v-2.05H642z" stroke="#7f7f7f" stroke-width=".05" fill="#7f7f7f"/><path d="M640 680.5V442.35" stroke="#7f7f7f" stroke-width="4" fill="none"/><path d="M641.98 682.5H638v-2.05H642zM638.14 440.06l.92.2.94.1.94-.1.92-.2.12-.05v2.4H638V440z" stroke="#7f7f7f" stroke-width=".05" fill="#7f7f7f"/><path d="M941.6 120.5l-1.96 377.2" stroke="#7f7f7f" stroke-width="4" fill="none"/><path d="M943.57 120.56l-3.95-.02v-2.04h3.96z" stroke="#7f7f7f" stroke-width=".05" fill="#7f7f7f"/><path d="M939.64 497.64v2.05M338.87 498.06l-.47-377.56M338.87 498v2.06" stroke="#7f7f7f" stroke-width="4" fill="none"/><path d="M340.37 120.55h-3.95v-2.05h3.95z" stroke="#7f7f7f" stroke-width=".05" fill="#7f7f7f"/><path d="M782.3 300.5l156.36-.75" stroke="#7f7f7f" stroke-width="4" fill="none"/><path d="M782.37 302.47h-2.57l.25-.6.23-.93.07-.94-.08-.94-.12-.53h2.2z" stroke="#7f7f7f" stroke-width=".05" fill="#7f7f7f"/><path d="M938.6 299.75h2.06M340.62 299.8l157.07.7M340.68 299.8h-2.06" stroke="#7f7f7f" stroke-width="4" fill="none"/><path d="M499.85 298.53l-.13.53-.07.94.08.94.2.92.27.62h-2.57l.02-3.96z" stroke="#7f7f7f" stroke-width=".05" fill="#7f7f7f"/><path d="M40 500.25l1197.44-.75" stroke="#7f7f7f" stroke-width="4" fill="none"/><path d="M40.05 502.22H38v-3.95h2.05z" stroke="#7f7f7f" stroke-width=".05" fill="#7f7f7f"/><path d="M1237.4 499.5h2.04" stroke="#7f7f7f" stroke-width="4" fill="none"/><path d="M637.17 162.83a4 4 0 0 1 5.66 0l134.34 134.34a4 4 0 0 1 0 5.66L642.83 437.17a4 4 0 0 1-5.66 0L502.83 302.83a4 4 0 0 1 0-5.66z" stroke="#7f7f7f" stroke-width="4" fill-opacity="0"/><path d="M340 128.5a8 8 0 0 1 8-8h224a8 8 0 0 1 8 8V152a8 8 0 0 1-8 8H348a8 8 0 0 1-8-8z" stroke="#000" stroke-opacity="0" fill="#fff" fill-opacity="0"/><use xlink:href="#a" transform="matrix(1,0,0,1,345,125.49997516778518) translate(0 27.15055555555553)"/><use xlink:href="#b" transform="matrix(1,0,0,1,345,125.49997516778518) translate(123.79644444444435 27.15055555555553)"/><path d="M40 128.5a8 8 0 0 1 8-8h224a8 8 0 0 1 8 8V152a8 8 0 0 1-8 8H48a8 8 0 0 1-8-8z" stroke="#000" stroke-opacity="0" fill="#fff" fill-opacity="0"/><use xlink:href="#c" transform="matrix(1,0,0,1,45,125.49997516778518) translate(0 27.15055555555553)"/><use xlink:href="#d" transform="matrix(1,0,0,1,45,125.49997516778518) translate(97.04199999999992 27.15055555555553)"/><use xlink:href="#e" transform="matrix(1,0,0,1,45,125.49997516778518) translate(122.64022222222212 27.15055555555553)"/><path d="M640 128.5a8 8 0 0 1 8-8h224a8 8 0 0 1 8 8V152a8 8 0 0 1-8 8H648a8 8 0 0 1-8-8z" stroke="#000" stroke-opacity="0" fill="#fff" fill-opacity="0"/><use xlink:href="#f" transform="matrix(1,0,0,1,645,125.49997516778518) translate(0 27.15055555555553)"/><path d="M940 128.5a8 8 0 0 1 8-8h224a8 8 0 0 1 8 8V152a8 8 0 0 1-8 8H948a8 8 0 0 1-8-8z" stroke="#000" stroke-opacity="0" fill="#fff" fill-opacity="0"/><use xlink:href="#g" transform="matrix(1,0,0,1,945,125.49997516778518) translate(0 27.15055555555553)"/><use xlink:href="#d" transform="matrix(1,0,0,1,945,125.49997516778518) translate(78.7575555555555 27.15055555555553)"/><use xlink:href="#h" transform="matrix(1,0,0,1,945,125.49997516778518) translate(104.35577777777769 27.15055555555553)"/><path d="M640 468a8 8 0 0 1 8-8h284a8 8 0 0 1 8 8v23.5a8 8 0 0 1-8 8H648a8 8 0 0 1-8-8z" stroke="#000" stroke-opacity="0" fill="#fff" fill-opacity="0"/><use xlink:href="#i" transform="matrix(1,0,0,1,645,465) translate(0 27.15055555555553)"/><use xlink:href="#d" transform="matrix(1,0,0,1,645,465) translate(89.70133333333327 27.15055555555553)"/><use xlink:href="#j" transform="matrix(1,0,0,1,645,465) translate(115.29955555555546 27.15055555555553)"/><path d="M340 468a8 8 0 0 1 8-8h224a8 8 0 0 1 8 8v23.5a8 8 0 0 1-8 8H348a8 8 0 0 1-8-8z" stroke="#000" stroke-opacity="0" fill="#fff" fill-opacity="0"/><use xlink:href="#k" transform="matrix(1,0,0,1,345,465) translate(0 27.15055555555553)"/><use xlink:href="#b" transform="matrix(1,0,0,1,345,465) translate(118.49933333333324 27.15055555555553)"/><path d="M40 507.5a8 8 0 0 1 8-8h264a8 8 0 0 1 8 8V531a8 8 0 0 1-8 8H48a8 8 0 0 1-8-8z" stroke="#000" stroke-opacity="0" fill="#fff" fill-opacity="0"/><g><use xlink:href="#l" transform="matrix(1,0,0,1,44.99999999999994,504.50002483221465) translate(0 27.15055555555553)"/><use xlink:href="#d" transform="matrix(1,0,0,1,44.99999999999994,504.50002483221465) translate(132.1319999999999 27.15055555555553)"/><use xlink:href="#m" transform="matrix(1,0,0,1,44.99999999999994,504.50002483221465) translate(157.7302222222221 27.15055555555553)"/></g><path d="M640 507.5a8 8 0 0 1 8-8h264a8 8 0 0 1 8 8V531a8 8 0 0 1-8 8H648a8 8 0 0 1-8-8z" stroke="#000" stroke-opacity="0" fill="#fff" fill-opacity="0"/><g><use xlink:href="#n" transform="matrix(1,0,0,1,645,504.50002483221465) translate(0 27.15055555555553)"/><use xlink:href="#d" transform="matrix(1,0,0,1,645,504.50002483221465) translate(168.13622222222207 27.15055555555553)"/><use xlink:href="#o" transform="matrix(1,0,0,1,645,504.50002483221465) translate(193.73444444444428 27.15055555555553)"/></g><path d="M580 288a8 8 0 0 1 8-8h104a8 8 0 0 1 8 8v23.5a8 8 0 0 1-8 8H588a8 8 0 0 1-8-8z" stroke="#000" stroke-opacity="0" fill="#fff" fill-opacity="0"/><g><use xlink:href="#p" transform="matrix(1,0,0,1,585,285) translate(1.7062222222222658 27.15055555555553)"/></g><defs><path fill="#fff" d="M667-159C614-26 401 51 236-26 93-93-21-285 54-488c47-128 154-223 327-226 132-2 232 67 276 155l-106 73c-30-64-85-106-174-106-137 0-206 101-206 236 0 137 74 240 208 240 89 0 146-43 175-108" id="q"/><path fill="#fff" d="M577-261C577-95 473 10 303 10S28-94 28-261s105-272 275-272 274 105 274 272zM303-419c-89 0-137 66-137 158s48 157 137 157c90 0 137-66 137-158 0-91-48-157-137-157" id="r"/><path fill="#fff" d="M718-533c120 0 156 88 157 206V0H741v-294c0-72-20-121-81-121-62 0-110 55-125 110V0H401v-294c0-72-20-121-81-121s-110 54-125 109V0H61v-524h121v97c35-63 102-105 195-106 84-1 133 46 148 111 38-64 98-111 193-111" id="s"/><path fill="#fff" d="M390-533c121 0 157 87 158 206V0H414v-294c0-72-21-121-83-121-72 0-115 51-136 109V0H61v-524h121v97c35-63 112-106 208-106" id="t"/><g id="a"><use transform="matrix(0.026888888888888865,0,0,0.026888888888888865,0,0)" xlink:href="#q"/><use transform="matrix(0.026888888888888865,0,0,0.026888888888888865,18.44577777777776,0)" xlink:href="#r"/><use transform="matrix(0.026888888888888865,0,0,0.026888888888888865,34.740444444444414,0)" xlink:href="#s"/><use transform="matrix(0.026888888888888865,0,0,0.026888888888888865,59.773999999999944,0)" xlink:href="#s"/><use transform="matrix(0.026888888888888865,0,0,0.026888888888888865,84.80755555555548,0)" xlink:href="#r"/><use transform="matrix(0.026888888888888865,0,0,0.026888888888888865,101.10222222222214,0)" xlink:href="#t"/></g><path fill="#fff" d="M171-355c0 138 75 238 210 238 69 0 131-32 186-97v-50H424v-101h257V0H567v-80C483 8 358 31 238-23S32-190 32-359c0-166 91-272 209-327 92-44 229-36 309 13 47 29 83 66 107 113l-103 76c-30-63-95-109-181-109-133 0-202 103-202 238" id="u"/><path fill="#fff" d="M25-156c-4-160 209-199 351-146 8-91-32-139-117-138-70 2-116 27-164 59l-41-85c67-45 140-67 218-67 145-1 239 73 238 216v163c0 27 8 38 32 40V0c-79 21-151-1-146-84-40 54-105 94-192 94C98 10 27-51 25-156zm127-11c-3 99 158 96 202 35 32-19 20-55 22-98-75-34-222-31-224 63" id="v"/><path fill="#fff" d="M192 8C109 9 59-38 60-121v-609h134v562c-7 64 65 73 108 47l18 102C290-3 235 8 192 8" id="w"/><path fill="#fff" d="M460-212C532-31 307 54 130-11 88-26 52-45 22-71l50-84c54 37 106 67 184 69 47 1 85-16 86-58 0-19-9-32-27-41-91-50-275-37-275-176 0-201 301-213 411-101l-54 81c-45-33-87-51-152-58-62-6-114 66-57 98 87 48 237 41 272 129" id="x"/><g id="b"><use transform="matrix(0.026888888888888865,0,0,0.026888888888888865,0,0)" xlink:href="#u"/><use transform="matrix(0.026888888888888865,0,0,0.026888888888888865,19.494444444444426,0)" xlink:href="#r"/><use transform="matrix(0.026888888888888865,0,0,0.026888888888888865,35.78911111111108,0)" xlink:href="#v"/><use transform="matrix(0.026888888888888865,0,0,0.026888888888888865,51.223333333333294,0)" xlink:href="#w"/><use transform="matrix(0.026888888888888865,0,0,0.026888888888888865,59.74711111111107,0)" xlink:href="#x"/></g><path fill="#fff" d="M601-474c0 137-83 236-221 236H212V0H74v-710h301c138 10 226 100 226 236zm-140 0c-3-66-32-115-95-115H212v230h160c56-1 91-53 89-115" id="y"/><path fill="#fff" d="M548-127C511-49 421 14 304 10 135 5 28-93 28-259c0-170 106-274 277-274 182 0 285 122 270 314H170c10 78 56 128 139 131 54 2 110-31 124-71zM440-306c3-111-148-173-229-94-23 21-40 54-43 94h272" id="z"/><path fill="#fff" d="M604-263c0 155-78 267-229 273-87 4-148-44-180-102v305H61v-737h117v90c35-56 94-99 181-99 156 0 245 113 245 270zm-409 55c19 51 70 104 135 104 89 0 137-69 137-159 0-93-54-156-145-156-65 0-106 40-127 88v123" id="A"/><g id="c"><use transform="matrix(0.026888888888888865,0,0,0.026888888888888865,0,0)" xlink:href="#y"/><use transform="matrix(0.026888888888888865,0,0,0.026888888888888865,16.509777777777764,0)" xlink:href="#z"/><use transform="matrix(0.026888888888888865,0,0,0.026888888888888865,32.61622222222219,0)" xlink:href="#r"/><use transform="matrix(0.026888888888888865,0,0,0.026888888888888865,48.91088888888885,0)" xlink:href="#A"/><use transform="matrix(0.026888888888888865,0,0,0.026888888888888865,65.95844444444438,0)" xlink:href="#w"/><use transform="matrix(0.026888888888888865,0,0,0.026888888888888865,74.48222222222215,0)" xlink:href="#z"/></g><path fill="#fff" d="M627-389c-1 97-25 172-62 235L712 0H536l-56-59c-51 40-116 69-200 69C139 10 40-65 40-201c0-101 64-148 125-193-45-54-78-79-78-155 0-112 80-170 195-170 108 0 189 50 189 157 0 92-63 138-121 183l136 142c19-42 32-92 32-152h109zM169-200c0 115 164 133 239 64L244-309c-37 29-75 54-75 109zm113-420c-54 0-95 58-60 103 14 20 29 34 48 55 38-30 75-46 78-98 2-36-29-60-66-60" id="B"/><use transform="matrix(0.026888888888888865,0,0,0.026888888888888865,0,0)" xlink:href="#B" id="d"/><path fill="#fff" d="M614-474c5 97-56 179-128 207L648 0H493L348-238H212V0H74v-710h314c138 10 219 100 226 236zm-139 0c0-65-35-115-96-115H212v230h173c60-5 90-52 90-115" id="C"/><g id="e"><use transform="matrix(0.026888888888888865,0,0,0.026888888888888865,0,0)" xlink:href="#C"/><use transform="matrix(0.026888888888888865,0,0,0.026888888888888865,17.477777777777764,0)" xlink:href="#r"/><use transform="matrix(0.026888888888888865,0,0,0.026888888888888865,33.77244444444442,0)" xlink:href="#w"/><use transform="matrix(0.026888888888888865,0,0,0.026888888888888865,42.296222222222184,0)" xlink:href="#z"/><use transform="matrix(0.026888888888888865,0,0,0.026888888888888865,58.40266666666661,0)" xlink:href="#x"/></g><path fill="#fff" d="M147-710l192 537 190-537h145L397 0H281L2-710h145" id="D"/><path fill="#fff" d="M432-98C391-33 319 10 221 10 104 10 55-71 56-196v-328h134v299c0 81 29 121 87 121 66 0 111-42 135-95v-325h134v370c0 27 8 38 32 40V0c-63 16-138 3-143-56" id="E"/><g id="f"><use transform="matrix(0.026888888888888865,0,0,0.026888888888888865,0,0)" xlink:href="#D"/><use transform="matrix(0.026888888888888865,0,0,0.026888888888888865,16.832444444444427,0)" xlink:href="#v"/><use transform="matrix(0.026888888888888865,0,0,0.026888888888888865,32.26666666666664,0)" xlink:href="#w"/><use transform="matrix(0.026888888888888865,0,0,0.026888888888888865,40.790444444444404,0)" xlink:href="#E"/><use transform="matrix(0.026888888888888865,0,0,0.026888888888888865,57.407777777777724,0)" xlink:href="#z"/><use transform="matrix(0.026888888888888865,0,0,0.026888888888888865,73.51422222222216,0)" xlink:href="#x"/></g><g id="g"><use transform="matrix(0.026888888888888865,0,0,0.026888888888888865,0,0)" xlink:href="#C"/><use transform="matrix(0.026888888888888865,0,0,0.026888888888888865,17.692888888888874,0)" xlink:href="#E"/><use transform="matrix(0.026888888888888865,0,0,0.026888888888888865,34.310222222222194,0)" xlink:href="#w"/><use transform="matrix(0.026888888888888865,0,0,0.026888888888888865,42.83399999999996,0)" xlink:href="#z"/><use transform="matrix(0.026888888888888865,0,0,0.026888888888888865,58.940444444444395,0)" xlink:href="#x"/></g><path fill="#fff" d="M276-710h122L668 0H526l-66-177H212L147 0H5zm159 436l-98-279-102 279h200" id="F"/><path fill="#fff" d="M305 10C134 5 28-95 28-262c0-168 106-266 276-271 116-4 198 57 237 134l-131 40c-20-35-56-60-107-60-89 0-137 65-137 157 0 91 48 153 137 158 48 2 95-29 109-62l131 40C508-48 420 14 305 10" id="G"/><path fill="#fff" d="M225-165c-5 70 87 52 123 32l27 106c-37 15-93 38-148 36C142 8 91-34 91-120v-301H22v-103h69v-170h134v170h110v103H225v256" id="H"/><path fill="#fff" d="M61 0v-524h134V0H61zm0-597v-133h134v133H61" id="I"/><path fill="#fff" d="M202 0L9-524h138l133 415 134-415h126L347 0H202" id="J"/><g id="h"><use transform="matrix(0.026888888888888865,0,0,0.026888888888888865,0,0)" xlink:href="#F"/><use transform="matrix(0.026888888888888865,0,0,0.026888888888888865,17.692888888888874,0)" xlink:href="#G"/><use transform="matrix(0.026888888888888865,0,0,0.026888888888888865,32.858222222222196,0)" xlink:href="#H"/><use transform="matrix(0.026888888888888865,0,0,0.026888888888888865,43.18355555555552,0)" xlink:href="#I"/><use transform="matrix(0.026888888888888865,0,0,0.026888888888888865,50.040222222222184,0)" xlink:href="#J"/><use transform="matrix(0.026888888888888865,0,0,0.026888888888888865,64.80222222222217,0)" xlink:href="#I"/><use transform="matrix(0.026888888888888865,0,0,0.026888888888888865,71.65888888888882,0)" xlink:href="#H"/><use transform="matrix(0.026888888888888865,0,0,0.026888888888888865,81.98422222222214,0)" xlink:href="#I"/><use transform="matrix(0.026888888888888865,0,0,0.026888888888888865,88.8408888888888,0)" xlink:href="#z"/><use transform="matrix(0.026888888888888865,0,0,0.026888888888888865,104.94733333333323,0)" xlink:href="#x"/></g><path fill="#fff" d="M212-455V0H74v-710h107l370 466v-465h138V0H577" id="K"/><path fill="#fff" d="M460-91C428-32 361 10 278 10 119 10 29-102 29-262c0-156 81-264 234-271 82-4 146 46 177 101v-298h134v576c0 27 7 38 31 40V0c-81 22-152-5-145-91zM168-259c0 92 53 155 145 155 65 0 106-40 127-88v-125c-23-54-65-102-135-102-89 0-137 70-137 160" id="L"/><g id="i"><use transform="matrix(0.026888888888888865,0,0,0.026888888888888865,0,0)" xlink:href="#K"/><use transform="matrix(0.026888888888888865,0,0,0.026888888888888865,20.32799999999998,0)" xlink:href="#z"/><use transform="matrix(0.026888888888888865,0,0,0.026888888888888865,36.43444444444441,0)" xlink:href="#z"/><use transform="matrix(0.026888888888888865,0,0,0.026888888888888865,52.540888888888844,0)" xlink:href="#L"/><use transform="matrix(0.026888888888888865,0,0,0.026888888888888865,69.88422222222216,0)" xlink:href="#x"/></g><path fill="#fff" d="M567-121V0H74v-710h484v121H212v171h299v112H212v185h355" id="M"/><path fill="#fff" d="M144-524l113 164 8 18c38-63 82-121 122-182h138L338-261 528 0H390c-41-60-87-117-125-180-36 65-83 119-123 180H4l189-261L7-524h137" id="N"/><g id="j"><use transform="matrix(0.026888888888888865,0,0,0.026888888888888865,0,0)" xlink:href="#M"/><use transform="matrix(0.026888888888888865,0,0,0.026888888888888865,16.16022222222221,0)" xlink:href="#N"/><use transform="matrix(0.026888888888888865,0,0,0.026888888888888865,30.438222222222194,0)" xlink:href="#A"/><use transform="matrix(0.026888888888888865,0,0,0.026888888888888865,47.48577777777774,0)" xlink:href="#z"/><use transform="matrix(0.026888888888888865,0,0,0.026888888888888865,63.592222222222176,0)" xlink:href="#G"/><use transform="matrix(0.026888888888888865,0,0,0.026888888888888865,78.7575555555555,0)" xlink:href="#H"/><use transform="matrix(0.026888888888888865,0,0,0.026888888888888865,89.08288888888882,0)" xlink:href="#v"/><use transform="matrix(0.026888888888888865,0,0,0.026888888888888865,104.40955555555547,0)" xlink:href="#H"/><use transform="matrix(0.026888888888888865,0,0,0.026888888888888865,114.73488888888879,0)" xlink:href="#I"/><use transform="matrix(0.026888888888888865,0,0,0.026888888888888865,121.59155555555544,0)" xlink:href="#r"/><use transform="matrix(0.026888888888888865,0,0,0.026888888888888865,137.8862222222221,0)" xlink:href="#t"/><use transform="matrix(0.026888888888888865,0,0,0.026888888888888865,154.127111111111,0)" xlink:href="#x"/></g><path fill="#fff" d="M184-412c38-63 88-124 189-118v122c-82 2-152 32-178 91V0H61v-524h123v112" id="O"/><g id="k"><use transform="matrix(0.026888888888888865,0,0,0.026888888888888865,0,0)" xlink:href="#y"/><use transform="matrix(0.026888888888888865,0,0,0.026888888888888865,16.509777777777764,0)" xlink:href="#z"/><use transform="matrix(0.026888888888888865,0,0,0.026888888888888865,32.61622222222219,0)" xlink:href="#O"/><use transform="matrix(0.026888888888888865,0,0,0.026888888888888865,43.02222222222218,0)" xlink:href="#x"/><use transform="matrix(0.026888888888888865,0,0,0.026888888888888865,56.38599999999995,0)" xlink:href="#r"/><use transform="matrix(0.026888888888888865,0,0,0.026888888888888865,72.68066666666661,0)" xlink:href="#t"/><use transform="matrix(0.026888888888888865,0,0,0.026888888888888865,88.92155555555549,0)" xlink:href="#v"/><use transform="matrix(0.026888888888888865,0,0,0.026888888888888865,104.35577777777769,0)" xlink:href="#w"/></g><path fill="#fff" d="M51-492c2-152 107-219 259-223 101-3 187 39 248 79l-61 112c-45-36-111-65-191-70-81-5-135 47-102 116 73 72 242 65 318 135 36 33 61 72 61 140C583 72 170 38 22-84l61-119c57 44 138 80 239 87 123 9 148-101 64-140-127-61-338-50-335-236" id="P"/><path fill="#fff" d="M440-91C410-37 345 3 266 3 114 3 30-108 30-262c0-159 86-271 244-271 88 0 146 45 183 101v-92h117v499c-8 168-120 245-291 248-120 2-190-43-245-109l73-71c35 44 97 79 172 79 96 0 155-49 157-147v-66zM167-258c0 91 54 154 144 154 67 0 107-40 129-88v-125c-19-52-73-102-137-102-89 0-136 70-136 161" id="Q"/><path fill="#fff" d="M383-533c124 0 164 85 165 206V0H414v-294c0-73-24-121-88-121-69 0-110 52-131 109V0H61v-730h134v303c34-61 99-105 188-106" id="R"/><g id="l"><use transform="matrix(0.026888888888888865,0,0,0.026888888888888865,0,0)" xlink:href="#P"/><use transform="matrix(0.026888888888888865,0,0,0.026888888888888865,16.32155555555554,0)" xlink:href="#H"/><use transform="matrix(0.026888888888888865,0,0,0.026888888888888865,26.646888888888867,0)" xlink:href="#O"/><use transform="matrix(0.026888888888888865,0,0,0.026888888888888865,36.35377777777774,0)" xlink:href="#z"/><use transform="matrix(0.026888888888888865,0,0,0.026888888888888865,52.46022222222217,0)" xlink:href="#t"/><use transform="matrix(0.026888888888888865,0,0,0.026888888888888865,68.70111111111105,0)" xlink:href="#Q"/><use transform="matrix(0.026888888888888865,0,0,0.026888888888888865,85.7486666666666,0)" xlink:href="#H"/><use transform="matrix(0.026888888888888865,0,0,0.026888888888888865,96.07399999999991,0)" xlink:href="#R"/><use transform="matrix(0.026888888888888865,0,0,0.026888888888888865,112.31488888888879,0)" xlink:href="#x"/></g><g id="m"><use transform="matrix(0.026888888888888865,0,0,0.026888888888888865,0,0)" xlink:href="#F"/><use transform="matrix(0.026888888888888865,0,0,0.026888888888888865,17.907999999999987,0)" xlink:href="#x"/><use transform="matrix(0.026888888888888865,0,0,0.026888888888888865,31.271777777777757,0)" xlink:href="#x"/><use transform="matrix(0.026888888888888865,0,0,0.026888888888888865,44.63555555555552,0)" xlink:href="#z"/><use transform="matrix(0.026888888888888865,0,0,0.026888888888888865,60.634444444444405,0)" xlink:href="#H"/><use transform="matrix(0.026888888888888865,0,0,0.026888888888888865,70.95977777777772,0)" xlink:href="#x"/></g><path fill="#fff" d="M319-708h127l80 235 80-235h128L613-385l90 227 201-552h150L765 0H649L526-298 403 0H287L0-710h148l202 552 88-227" id="S"/><path fill="#fff" d="M419 0L267-227l-72 71V0H61v-730h134v443l210-236h143L353-301 562 0H419" id="T"/><g id="n"><use transform="matrix(0.026888888888888865,0,0,0.026888888888888865,0,0)" xlink:href="#S"/><use transform="matrix(0.026888888888888865,0,0,0.026888888888888865,26.59311111111109,0)" xlink:href="#z"/><use transform="matrix(0.026888888888888865,0,0,0.026888888888888865,42.69955555555552,0)" xlink:href="#v"/><use transform="matrix(0.026888888888888865,0,0,0.026888888888888865,58.13377777777772,0)" xlink:href="#T"/><use transform="matrix(0.026888888888888865,0,0,0.026888888888888865,73.13777777777771,0)" xlink:href="#t"/><use transform="matrix(0.026888888888888865,0,0,0.026888888888888865,89.37866666666659,0)" xlink:href="#z"/><use transform="matrix(0.026888888888888865,0,0,0.026888888888888865,105.48511111111102,0)" xlink:href="#x"/><use transform="matrix(0.026888888888888865,0,0,0.026888888888888865,118.84888888888878,0)" xlink:href="#x"/><use transform="matrix(0.026888888888888865,0,0,0.026888888888888865,132.21266666666656,0)" xlink:href="#z"/><use transform="matrix(0.026888888888888865,0,0,0.026888888888888865,148.319111111111,0)" xlink:href="#x"/></g><g id="o"><use transform="matrix(0.026888888888888865,0,0,0.026888888888888865,0,0)" xlink:href="#C"/><use transform="matrix(0.026888888888888865,0,0,0.026888888888888865,17.746666666666652,0)" xlink:href="#I"/><use transform="matrix(0.026888888888888865,0,0,0.026888888888888865,24.60333333333331,0)" xlink:href="#x"/><use transform="matrix(0.026888888888888865,0,0,0.026888888888888865,37.96711111111108,0)" xlink:href="#T"/><use transform="matrix(0.026888888888888865,0,0,0.026888888888888865,52.97111111111107,0)" xlink:href="#x"/></g><g id="p"><use transform="matrix(0.026888888888888865,0,0,0.026888888888888865,0,0)" xlink:href="#y"/><use transform="matrix(0.026888888888888865,0,0,0.026888888888888865,16.751777777777765,0)" xlink:href="#E"/><use transform="matrix(0.026888888888888865,0,0,0.026888888888888865,33.36911111111108,0)" xlink:href="#O"/><use transform="matrix(0.026888888888888865,0,0,0.026888888888888865,43.77511111111107,0)" xlink:href="#A"/><use transform="matrix(0.026888888888888865,0,0,0.026888888888888865,60.82266666666661,0)" xlink:href="#r"/><use transform="matrix(0.026888888888888865,0,0,0.026888888888888865,77.11733333333326,0)" xlink:href="#x"/><use transform="matrix(0.026888888888888865,0,0,0.026888888888888865,90.48111111111103,0)" xlink:href="#z"/></g></defs></g></svg>